<?xml version="1.0" encoding="iso-8859-1"?>
<!-- Generator: Adobe Illustrator 17.1.0, SVG Export Plug-In . SVG Version: 6.00 Build 0)  -->
<!DOCTYPE svg PUBLIC "-//W3C//DTD SVG 1.1//EN" "http://www.w3.org/Graphics/SVG/1.1/DTD/svg11.dtd">
<svg version="1.1" id="Layer_1" xmlns="http://www.w3.org/2000/svg" xmlns:xlink="http://www.w3.org/1999/xlink" x="0px" y="0px"
	 viewBox="0 0 300 87.834" style="enable-background:new 0 0 300 87.834;" xml:space="preserve">
<g>
	<g>
		<path style="fill:#FFFFFF;" d="M113.407,34.757c3.507,0,6.12,1.017,8.355,2.782c0.172,0.149,0.207,0.389,0.035,0.538l-0.55,0.509
			c-0.206,0.179-0.378,0.149-0.585-0.03c-1.96-1.526-4.435-2.453-7.255-2.453c-6.016,0-10.727,4.277-10.727,9.452
			c0,5.145,4.711,9.393,10.727,9.393c2.957,0,5.192-1.017,7.255-2.512c0.207-0.15,0.413-0.15,0.55-0.06l0.585,0.508
			c0.172,0.12,0.172,0.359,0,0.508c-2.338,1.974-5.329,2.902-8.389,2.902c-6.876,0-12.446-4.726-12.446-10.739
			C100.961,39.573,106.531,34.757,113.407,34.757z"/>
		<path style="fill:#FFFFFF;" d="M129.425,35.445c0-0.209,0.207-0.389,0.447-0.389h0.722c0.275,0,0.447,0.179,0.447,0.389v9.183
			h15.437v-9.183c0-0.209,0.207-0.389,0.447-0.389h0.723c0.274,0,0.447,0.179,0.447,0.389v20.161c0,0.209-0.173,0.389-0.447,0.389
			h-0.723c-0.24,0-0.447-0.18-0.447-0.389v-9.721h-15.437v9.721c0,0.209-0.172,0.389-0.447,0.389h-0.722
			c-0.241,0-0.447-0.18-0.447-0.389V35.445z"/>
		<path style="fill:#FFFFFF;" d="M156.754,35.445c0-0.209,0.172-0.389,0.447-0.389h8.527c4.195,0,7.668,2.752,7.668,6.401
			c0,3.021-2.407,5.444-5.673,6.251l5.019,7.747c0.172,0.239,0.103,0.538-0.24,0.538h-1.066c-0.24,0-0.378-0.09-0.482-0.27
			l-4.985-7.836c-0.447,0.03-0.825,0.03-1.272,0.03h-6.326v7.687c0,0.209-0.206,0.389-0.55,0.389h-0.619
			c-0.24,0-0.447-0.18-0.447-0.389V35.445z M165.659,46.662c3.301,0,6.086-2.244,6.086-5.205c0-2.842-2.785-5.025-6.121-5.025h-7.22
			v10.23H165.659z"/>
		<path style="fill:#FFFFFF;" d="M191.133,34.757c6.911,0,12.412,4.815,12.412,10.798c0,6.013-5.501,10.739-12.412,10.739
			c-6.876,0-12.377-4.726-12.377-10.739C178.755,39.573,184.257,34.757,191.133,34.757z M191.133,54.978
			c6.016,0,10.899-4.188,10.899-9.423c0-5.234-4.882-9.482-10.899-9.482c-6.016,0-10.865,4.248-10.865,9.482
			C180.268,50.79,185.116,54.978,191.133,54.978z"/>
		<path style="fill:#FFFFFF;" d="M210.485,35.146c0-0.239,0.241-0.389,0.516-0.389h0.584l16.503,18.694c0.035,0,0.035,0,0.035,0
			V35.445c0-0.209,0.206-0.389,0.447-0.389h0.687c0.241,0,0.448,0.179,0.448,0.389v20.46c0,0.27-0.275,0.389-0.55,0.389h-0.448
			c-0.034,0-0.309-0.09-16.64-18.875h-0.035v18.187c0,0.209-0.206,0.389-0.447,0.389h-0.653c-0.24,0-0.447-0.18-0.447-0.389V35.146z
			"/>
		<path style="fill:#FFFFFF;" d="M237.298,35.445c0-0.209,0.207-0.389,0.447-0.389h0.722c0.241,0,0.448,0.179,0.448,0.389v12.772
			c0,3.859,2.784,6.701,7.357,6.701c4.607,0,7.426-2.812,7.426-6.671V35.445c0-0.239,0.138-0.389,0.482-0.389h0.688
			c0.24,0,0.447,0.179,0.447,0.389v12.922c0,4.577-3.576,7.927-9.043,7.927c-5.432,0-8.974-3.35-8.974-7.927V35.445z"/>
		<path style="fill:#FFFFFF;" d="M262.256,53.212l0.31-0.359c0.24-0.24,0.481-0.329,0.756-0.12c0.344,0.27,2.888,2.304,6.361,2.304
			c3.129,0,5.776-1.825,5.776-4.008c0-2.662-2.51-3.859-6.67-5.085c-3.989-1.227-6.636-2.453-6.636-5.893
			c0-2.243,2.063-5.294,7.426-5.294c3.404,0,5.914,1.525,5.914,1.525c0.137,0.09,0.378,0.299,0.137,0.628
			c-0.103,0.119-0.207,0.269-0.275,0.389c-0.207,0.239-0.412,0.329-0.757,0.149c-0.103-0.06-2.406-1.406-5.054-1.406
			c-4.228,0-5.81,2.273-5.81,3.978c0,2.542,2.235,3.649,5.707,4.636c4.71,1.406,7.702,2.841,7.702,6.311
			c0,2.991-3.542,5.325-7.496,5.325c-4.091,0-6.842-2.094-7.288-2.453C262.152,53.691,261.98,53.542,262.256,53.212z"/>
	</g>
	<path style="fill:#FFFFFF;" d="M10.979,45.239c1.246-0.6,2.404-0.956,3.435-1.088c1.041-0.129,1.955-0.029,2.694,0.289
		c0.752,0.321,1.33,0.864,1.683,1.616c0.356,0.763,0.486,1.741,0.335,2.91c-0.077,0.58-0.217,1.181-0.419,1.8
		c-0.203,0.622-0.465,1.263-0.785,1.91c-0.322,0.651-0.703,1.311-1.135,1.97c-0.434,0.661-0.924,1.322-1.462,1.97
		c-0.54,0.651-1.114,1.271-1.712,1.856c-0.597,0.583-1.22,1.133-1.859,1.638c-0.638,0.504-1.291,0.962-1.951,1.367
		c-0.66,0.409-1.324,0.761-1.986,1.056l-0.022,0.011c-1.355,0.599-2.584,0.907-3.651,0.946c-1.053,0.039-1.938-0.184-2.617-0.636
		c-0.67-0.448-1.137-1.117-1.367-1.981c-0.226-0.846-0.221-1.883,0.049-3.078c0.27-1.186,0.775-2.417,1.453-3.636
		c0.675-1.204,1.52-2.397,2.485-3.521c0.963-1.114,2.046-2.166,3.198-3.083C8.5,46.636,9.727,45.843,10.979,45.239 M80.764,11.405
		c-0.819,0.394-1.609,0.831-2.363,1.302c-0.752,0.468-1.467,0.971-2.142,1.503c-0.677,0.53-1.31,1.092-1.899,1.677
		c-0.585,0.583-1.127,1.194-1.614,1.825c-0.487,0.63-0.908,1.265-1.256,1.892c-0.352,0.632-0.631,1.258-0.839,1.873
		c-0.207,0.616-0.342,1.222-0.4,1.814c-0.058,0.59-0.037,1.165,0.061,1.717c0.217,1.144,0.775,2.091,1.604,2.82
		c0.843,0.743,1.97,1.263,3.303,1.534c1.354,0.277,2.922,0.301,4.619,0.049c1.719-0.257,3.565-0.794,5.447-1.631l0.045-0.022
		c0.918-0.408,1.808-0.872,2.66-1.384c0.853-0.512,1.667-1.073,2.433-1.67c0.764-0.597,1.477-1.234,2.128-1.901
		c0.652-0.665,1.239-1.359,1.753-2.072c0.514-0.712,0.938-1.421,1.272-2.118c0.333-0.694,0.579-1.376,0.728-2.038
		c0.151-0.657,0.213-1.294,0.184-1.904c-0.027-0.604-0.147-1.18-0.352-1.718c-0.427-1.09-1.2-1.941-2.222-2.544
		c-1.008-0.594-2.259-0.954-3.665-1.072c-1.386-0.118-2.925-0.006-4.538,0.34C84.116,10.021,82.444,10.594,80.764,11.405
		 M24.189,63.579c-0.999,0.427-1.992,0.968-2.951,1.608c-0.958,0.634-1.89,1.369-2.771,2.176c-0.881,0.815-1.716,1.698-2.481,2.646
		c-0.767,0.95-1.466,1.963-2.073,3.015c-0.459,0.79-0.854,1.586-1.189,2.372c-0.333,0.793-0.604,1.577-0.803,2.351
		c-0.206,0.779-0.34,1.54-0.404,2.279c-0.065,0.749-0.055,1.475,0.028,2.166c0.086,0.698,0.245,1.337,0.472,1.921
		c0.231,0.592,0.536,1.118,0.908,1.583c0.374,0.463,0.819,0.861,1.329,1.181c0.514,0.32,1.095,0.566,1.738,0.726
		c0.424,0.109,0.867,0.18,1.329,0.214c0.462,0.031,0.944,0.021,1.439-0.025c0.498-0.046,1.008-0.132,1.532-0.256
		c0.523-0.125,1.056-0.292,1.597-0.494c1.123-0.42,2.243-0.996,3.335-1.7c1.093-0.702,2.153-1.533,3.149-2.461
		c0.996-0.928,1.928-1.952,2.763-3.044c0.831-1.085,1.566-2.239,2.18-3.427c0.932-1.817,1.512-3.58,1.766-5.202
		c0.251-1.6,0.184-3.058-0.175-4.303c-0.352-1.223-0.983-2.244-1.867-2.987c-0.873-0.735-1.99-1.204-3.332-1.345
		c-0.42-0.043-0.856-0.05-1.303-0.028c-0.445,0.02-0.9,0.073-1.363,0.16c-0.464,0.084-0.935,0.199-1.413,0.347
		C25.155,63.195,24.673,63.371,24.189,63.579 M58.804,1.997c-0.874,0.457-1.718,0.972-2.522,1.533
		C55.48,4.086,54.72,4.691,54.02,5.322c-0.704,0.631-1.346,1.292-1.915,1.968c-0.569,0.677-1.062,1.369-1.463,2.063
		c-0.617,1.071-0.974,2.064-1.083,2.951c-0.111,0.893,0.029,1.677,0.402,2.309c0.378,0.639,0.995,1.127,1.833,1.419
		c0.85,0.295,1.928,0.389,3.212,0.238c0.409-0.048,0.832-0.119,1.263-0.215c0.434-0.096,0.877-0.215,1.328-0.357
		c0.452-0.142,0.907-0.308,1.371-0.493c0.46-0.19,0.926-0.399,1.391-0.63c0.966-0.478,1.906-1.033,2.796-1.645
		c0.894-0.611,1.737-1.278,2.508-1.982c0.771-0.701,1.467-1.435,2.064-2.183c0.598-0.745,1.097-1.503,1.48-2.251
		c0.287-0.552,0.503-1.088,0.649-1.596c0.144-0.504,0.217-0.982,0.221-1.429c0.006-0.446-0.059-0.857-0.193-1.233
		c-0.132-0.372-0.33-0.708-0.596-1.002c-0.264-0.292-0.586-0.531-0.958-0.723c-0.369-0.187-0.789-0.327-1.254-0.415
		c-0.462-0.088-0.97-0.126-1.515-0.114c-0.544,0.013-1.125,0.075-1.737,0.187c-0.401,0.073-0.81,0.166-1.225,0.282
		c-0.413,0.113-0.831,0.248-1.251,0.4c-0.42,0.153-0.845,0.323-1.271,0.512C59.654,1.57,59.227,1.775,58.804,1.997 M64.75,46.086
		c-0.583,0.248-1.159,0.527-1.728,0.831c-0.564,0.306-1.123,0.637-1.666,0.992c-0.542,0.355-1.073,0.736-1.585,1.142
		c-0.515,0.402-1.01,0.827-1.488,1.273c-0.721,0.676-1.384,1.386-1.984,2.113c-0.604,0.732-1.142,1.488-1.616,2.262
		c-0.476,0.775-0.883,1.566-1.216,2.368c-0.338,0.811-0.599,1.629-0.781,2.449c-0.186,0.827-0.286,1.634-0.298,2.408
		c-0.014,0.784,0.059,1.534,0.215,2.247c0.158,0.72,0.405,1.404,0.737,2.037c0.336,0.637,0.759,1.227,1.269,1.757
		c0.687,0.715,1.509,1.298,2.441,1.735c0.945,0.445,1.999,0.74,3.133,0.884c1.146,0.148,2.371,0.139,3.645-0.03
		c1.287-0.174,2.618-0.512,3.963-1.015c0.667-0.251,1.329-0.542,1.985-0.869c0.653-0.329,1.298-0.696,1.927-1.092
		c0.63-0.4,1.243-0.828,1.833-1.293c0.593-0.463,1.162-0.951,1.706-1.475c0.818-0.775,1.561-1.598,2.22-2.45
		c0.656-0.842,1.227-1.719,1.71-2.61c0.478-0.885,0.865-1.785,1.156-2.685c0.292-0.898,0.485-1.788,0.579-2.676
		c0.095-0.877,0.088-1.717-0.017-2.509c-0.102-0.783-0.303-1.52-0.59-2.205c-0.285-0.675-0.659-1.305-1.118-1.865
		c-0.454-0.56-0.991-1.058-1.603-1.49c-0.81-0.562-1.728-0.986-2.723-1.269c-0.986-0.282-2.049-0.427-3.16-0.443
		c-1.1-0.013-2.248,0.105-3.418,0.354C67.117,45.207,65.932,45.583,64.75,46.086 M43.375,18.726l-0.108,0.055
		c0.113,0.809,0.042,1.725-0.205,2.716c-0.249,1.005-0.678,2.085-1.275,3.205c-0.604,1.133-1.381,2.302-2.321,3.477
		c-0.944,1.18-2.05,2.36-3.304,3.497c-0.558,0.508-1.134,0.999-1.724,1.464c-0.589,0.465-1.188,0.911-1.798,1.326
		c-0.609,0.418-1.224,0.806-1.842,1.169c-0.616,0.359-1.236,0.69-1.848,0.989c-0.524,0.254-1.038,0.482-1.542,0.681
		c-0.505,0.203-0.996,0.372-1.474,0.52c-0.478,0.147-0.944,0.27-1.396,0.366c-0.449,0.096-0.885,0.167-1.303,0.208
		c0.823,0.061,1.57,0.241,2.22,0.546c0.662,0.305,1.223,0.736,1.672,1.285c0.455,0.558,0.793,1.243,0.992,2.042
		c0.206,0.813,0.266,1.75,0.171,2.806c-0.08,0.832-0.254,1.706-0.522,2.611c-0.271,0.913-0.634,1.857-1.088,2.817
		c-0.459,0.968-1.004,1.947-1.638,2.934c-0.635,0.992-1.353,1.981-2.153,2.959c-0.215,0.263-0.437,0.529-0.662,0.787
		c-0.223,0.256-0.45,0.514-0.681,0.764c-0.229,0.249-0.463,0.498-0.7,0.738c-0.237,0.244-0.476,0.478-0.717,0.713
		c0.572-0.494,1.154-0.971,1.748-1.419c0.594-0.452,1.199-0.873,1.812-1.277c0.613-0.399,1.232-0.768,1.86-1.11
		c0.629-0.345,1.264-0.658,1.899-0.943c0.684-0.297,1.36-0.559,2.031-0.775c0.673-0.222,1.339-0.398,1.997-0.537
		c0.66-0.137,1.307-0.232,1.943-0.283c0.637-0.051,1.261-0.054,1.869-0.013c1.277,0.082,2.429,0.363,3.44,0.822
		c1.032,0.469,1.917,1.118,2.648,1.924c0.747,0.821,1.333,1.81,1.745,2.937c0.417,1.149,0.655,2.443,0.695,3.857
		c0-0.351,0.012-0.699,0.037-1.053c0.021-0.354,0.059-0.709,0.106-1.069c0.048-0.359,0.107-0.72,0.18-1.084
		c0.07-0.361,0.154-0.727,0.252-1.101c0.295-1.157,0.701-2.313,1.204-3.448c0.497-1.123,1.091-2.231,1.775-3.311
		c0.679-1.072,1.446-2.121,2.293-3.137c0.844-1.008,1.771-1.984,2.774-2.918c0.665-0.613,1.357-1.204,2.069-1.766
		c0.715-0.558,1.449-1.092,2.201-1.59c0.756-0.498,1.527-0.967,2.314-1.397c0.789-0.434,1.592-0.832,2.406-1.19
		c0.692-0.306,1.384-0.582,2.079-0.823c0.692-0.244,1.386-0.459,2.076-0.638c0.694-0.187,1.384-0.337,2.071-0.463
		c0.688-0.123,1.374-0.212,2.05-0.274c-1.384-0.073-2.66-0.295-3.802-0.658c-1.123-0.357-2.114-0.851-2.949-1.471
		c-0.82-0.606-1.493-1.336-1.992-2.18c-0.49-0.829-0.815-1.767-0.952-2.806c-0.106-0.804-0.096-1.635,0.021-2.489
		c0.114-0.844,0.335-1.708,0.656-2.587c0.317-0.869,0.735-1.752,1.248-2.638c0.508-0.879,1.112-1.764,1.806-2.646
		c0.185-0.236,0.377-0.471,0.573-0.703c0.197-0.23,0.399-0.459,0.606-0.686c0.206-0.229,0.419-0.453,0.635-0.675
		c0.216-0.22,0.436-0.44,0.661-0.655c-0.545,0.472-1.112,0.933-1.699,1.378c-0.583,0.446-1.189,0.873-1.808,1.285
		c-0.616,0.411-1.249,0.8-1.891,1.168c-0.64,0.369-1.292,0.715-1.953,1.033c-0.698,0.34-1.396,0.647-2.089,0.916
		c-0.687,0.273-1.371,0.507-2.04,0.71c-0.667,0.199-1.323,0.366-1.962,0.493c-0.634,0.127-1.251,0.218-1.845,0.273
		c-1.349,0.126-2.527,0.061-3.53-0.169c-0.985-0.227-1.798-0.612-2.43-1.128c-0.621-0.51-1.07-1.148-1.338-1.89
		C43.371,20.468,43.282,19.636,43.375,18.726 M28.322,18.055c-0.379,0.195-0.756,0.41-1.13,0.638
		c-0.372,0.229-0.746,0.474-1.115,0.733c-0.365,0.257-0.732,0.529-1.087,0.812c-0.356,0.283-0.704,0.578-1.046,0.885
		c-1.062,0.956-1.977,1.954-2.725,2.946c-0.751,0.999-1.338,1.996-1.735,2.938c-0.398,0.949-0.604,1.844-0.594,2.63
		c0.012,0.796,0.251,1.478,0.74,1.991c0.32,0.332,0.734,0.575,1.225,0.726c0.495,0.154,1.071,0.212,1.709,0.181
		c0.642-0.033,1.348-0.159,2.1-0.379c0.754-0.221,1.555-0.538,2.379-0.946c0.41-0.204,0.822-0.427,1.232-0.672
		c0.411-0.243,0.822-0.507,1.227-0.787c0.405-0.279,0.804-0.576,1.197-0.885c0.393-0.312,0.778-0.64,1.15-0.976
		c1.163-1.051,2.142-2.152,2.918-3.241c0.771-1.079,1.335-2.141,1.677-3.123c0.339-0.974,0.454-1.865,0.333-2.619
		c-0.117-0.742-0.47-1.353-1.066-1.773c-0.381-0.264-0.846-0.439-1.376-0.527c-0.527-0.085-1.12-0.087-1.759-0.004
		c-0.636,0.08-1.319,0.244-2.036,0.488C29.828,17.334,29.082,17.656,28.322,18.055"/>
	<g>
		<path style="fill:#FFFFFF;" d="M110.29,66.736V72.7c0,0.681-0.146,1.277-0.438,1.787c-0.292,0.511-0.715,0.904-1.267,1.179
			s-1.214,0.413-1.983,0.413c-1.144,0-2.033-0.303-2.667-0.908c-0.634-0.605-0.952-1.438-0.952-2.497v-5.939h1.513v5.832
			c0,0.761,0.177,1.322,0.53,1.683c0.353,0.362,0.895,0.542,1.627,0.542c1.421,0,2.131-0.746,2.131-2.238v-5.819H110.29z"/>
		<path style="fill:#FFFFFF;" d="M118.303,75.953h-1.488v-4.287c0-0.538-0.109-0.939-0.325-1.204
			c-0.218-0.265-0.561-0.397-1.031-0.397c-0.627,0-1.084,0.185-1.374,0.555c-0.29,0.37-0.435,0.99-0.435,1.86v3.474h-1.482V68.98
			h1.16l0.208,0.914h0.076c0.21-0.332,0.508-0.589,0.895-0.769c0.386-0.18,0.815-0.271,1.286-0.271c1.672,0,2.509,0.851,2.509,2.553
			V75.953z"/>
		<path style="fill:#FFFFFF;" d="M121.523,75.953h-1.482v-9.81h1.482V75.953z"/>
		<path style="fill:#FFFFFF;" d="M126.364,76.079c-1.084,0-1.932-0.316-2.544-0.949c-0.612-0.633-0.917-1.504-0.917-2.613
			c0-1.139,0.284-2.034,0.851-2.686s1.347-0.977,2.339-0.977c0.921,0,1.647,0.28,2.181,0.839c0.534,0.559,0.801,1.328,0.801,2.308
			v0.801h-4.647c0.02,0.677,0.203,1.197,0.549,1.56c0.344,0.363,0.83,0.545,1.456,0.545c0.411,0,0.795-0.039,1.151-0.117
			c0.355-0.078,0.736-0.207,1.144-0.388v1.204c-0.362,0.173-0.727,0.294-1.097,0.366C127.261,76.044,126.838,76.079,126.364,76.079z
			 M126.093,69.976c-0.471,0-0.848,0.149-1.132,0.448s-0.453,0.734-0.508,1.305h3.165c-0.009-0.576-0.147-1.012-0.416-1.308
			C126.933,70.124,126.563,69.976,126.093,69.976z"/>
		<path style="fill:#FFFFFF;" d="M134.798,75.953l-0.296-0.971h-0.05c-0.336,0.425-0.675,0.713-1.015,0.867
			c-0.34,0.154-0.777,0.23-1.311,0.23c-0.685,0-1.22-0.185-1.605-0.555s-0.577-0.893-0.577-1.57c0-0.719,0.267-1.261,0.801-1.627
			c0.534-0.366,1.348-0.565,2.44-0.599l1.204-0.038v-0.372c0-0.445-0.104-0.779-0.312-0.999c-0.208-0.221-0.53-0.331-0.968-0.331
			c-0.357,0-0.7,0.053-1.028,0.158c-0.328,0.105-0.643,0.229-0.946,0.372l-0.479-1.059c0.378-0.198,0.793-0.348,1.242-0.451
			c0.45-0.103,0.875-0.154,1.274-0.154c0.887,0,1.557,0.193,2.008,0.58c0.452,0.387,0.678,0.994,0.678,1.822v4.697H134.798z
			 M132.592,74.945c0.538,0,0.97-0.151,1.296-0.451c0.326-0.3,0.489-0.722,0.489-1.264v-0.605l-0.895,0.038
			c-0.697,0.025-1.205,0.142-1.523,0.35c-0.317,0.208-0.476,0.526-0.476,0.955c0,0.311,0.093,0.552,0.277,0.722
			C131.945,74.859,132.222,74.945,132.592,74.945z"/>
		<path style="fill:#FFFFFF;" d="M142.288,73.967c0,0.681-0.248,1.203-0.744,1.567c-0.496,0.363-1.207,0.545-2.131,0.545
			c-0.929,0-1.675-0.141-2.238-0.422v-1.28c0.82,0.378,1.583,0.567,2.289,0.567c0.912,0,1.368-0.275,1.368-0.826
			c0-0.177-0.05-0.324-0.151-0.441c-0.101-0.117-0.267-0.24-0.498-0.366c-0.231-0.126-0.552-0.269-0.965-0.429
			c-0.803-0.311-1.346-0.622-1.63-0.933c-0.284-0.311-0.426-0.715-0.426-1.211c0-0.597,0.24-1.06,0.722-1.39
			c0.482-0.33,1.136-0.495,1.964-0.495c0.82,0,1.595,0.166,2.327,0.498l-0.479,1.116c-0.753-0.311-1.385-0.467-1.898-0.467
			c-0.782,0-1.173,0.223-1.173,0.668c0,0.218,0.102,0.404,0.306,0.555c0.204,0.151,0.649,0.359,1.333,0.624
			c0.576,0.223,0.994,0.426,1.255,0.612c0.261,0.185,0.454,0.398,0.58,0.64S142.288,73.631,142.288,73.967z"/>
		<path style="fill:#FFFFFF;" d="M149.702,75.953h-1.488v-4.287c0-0.538-0.109-0.939-0.325-1.204
			c-0.218-0.265-0.561-0.397-1.031-0.397c-0.623,0-1.08,0.186-1.371,0.558c-0.293,0.372-0.438,0.995-0.438,1.869v3.461h-1.482v-9.81
			h1.482v2.49c0,0.4-0.025,0.826-0.076,1.28h0.095c0.202-0.337,0.482-0.597,0.842-0.782c0.359-0.185,0.779-0.277,1.258-0.277
			c1.69,0,2.535,0.851,2.535,2.553V75.953z"/>
		<path style="fill:#FFFFFF;" d="M157.069,74.882c0.361,0,0.723-0.057,1.084-0.17v1.116c-0.164,0.072-0.375,0.132-0.634,0.18
			c-0.258,0.048-0.526,0.073-0.804,0.073c-1.404,0-2.106-0.74-2.106-2.219v-3.758h-0.952v-0.656l1.021-0.542l0.504-1.475h0.914
			v1.551h1.986v1.122h-1.986v3.733c0,0.357,0.089,0.621,0.268,0.791C156.544,74.796,156.779,74.882,157.069,74.882z"/>
		<path style="fill:#FFFFFF;" d="M165.358,75.953h-1.488v-4.287c0-0.538-0.108-0.939-0.325-1.204
			c-0.216-0.265-0.56-0.397-1.031-0.397c-0.622,0-1.079,0.186-1.371,0.558c-0.292,0.372-0.438,0.995-0.438,1.869v3.461h-1.482v-9.81
			h1.482v2.49c0,0.4-0.025,0.826-0.076,1.28h0.095c0.202-0.337,0.482-0.597,0.842-0.782s0.779-0.277,1.258-0.277
			c1.69,0,2.535,0.851,2.535,2.553V75.953z"/>
		<path style="fill:#FFFFFF;" d="M170.143,76.079c-1.084,0-1.932-0.316-2.544-0.949c-0.612-0.633-0.917-1.504-0.917-2.613
			c0-1.139,0.284-2.034,0.851-2.686s1.347-0.977,2.339-0.977c0.921,0,1.648,0.28,2.182,0.839c0.534,0.559,0.801,1.328,0.801,2.308
			v0.801h-4.647c0.021,0.677,0.204,1.197,0.549,1.56s0.83,0.545,1.456,0.545c0.412,0,0.795-0.039,1.151-0.117
			c0.355-0.078,0.737-0.207,1.144-0.388v1.204c-0.362,0.173-0.727,0.294-1.097,0.366C171.041,76.044,170.618,76.079,170.143,76.079z
			 M169.872,69.976c-0.471,0-0.848,0.149-1.132,0.448s-0.453,0.734-0.508,1.305h3.165c-0.009-0.576-0.147-1.012-0.416-1.308
			C170.713,70.124,170.342,69.976,169.872,69.976z"/>
		<path style="fill:#FFFFFF;" d="M183.507,69.522c0,0.962-0.315,1.7-0.946,2.213s-1.528,0.769-2.692,0.769h-0.958v3.449h-1.507
			v-9.218h2.654c1.151,0,2.014,0.236,2.588,0.706S183.507,68.606,183.507,69.522z M178.911,71.237h0.801
			c0.773,0,1.341-0.135,1.702-0.404c0.362-0.269,0.542-0.69,0.542-1.261c0-0.53-0.162-0.924-0.485-1.185s-0.828-0.391-1.513-0.391
			h-1.047V71.237z"/>
		<path style="fill:#FFFFFF;" d="M191.052,72.454c0,1.139-0.292,2.028-0.876,2.667c-0.584,0.639-1.397,0.958-2.44,0.958
			c-0.652,0-1.227-0.147-1.728-0.441c-0.5-0.294-0.885-0.716-1.154-1.267c-0.269-0.551-0.404-1.189-0.404-1.917
			c0-1.131,0.29-2.014,0.87-2.648c0.58-0.634,1.397-0.952,2.453-0.952c1.009,0,1.807,0.325,2.396,0.974
			C190.758,70.478,191.052,71.353,191.052,72.454z M185.977,72.454c0,1.61,0.595,2.415,1.784,2.415c1.177,0,1.765-0.805,1.765-2.415
			c0-1.593-0.593-2.39-1.778-2.39c-0.622,0-1.073,0.206-1.352,0.618C186.116,71.095,185.977,71.685,185.977,72.454z"/>
		<path style="fill:#FFFFFF;" d="M198.151,75.953l-0.902-3.253c-0.11-0.344-0.307-1.145-0.593-2.402H196.6
			c-0.244,1.135-0.437,1.94-0.58,2.415l-0.927,3.241h-1.639l-1.955-6.973h1.513l0.889,3.436c0.202,0.849,0.344,1.576,0.429,2.182
			h0.038c0.042-0.307,0.106-0.659,0.192-1.056s0.161-0.694,0.224-0.892l1.059-3.669h1.627l1.028,3.669
			c0.063,0.206,0.142,0.521,0.236,0.946c0.095,0.425,0.151,0.754,0.167,0.99h0.05c0.063-0.517,0.21-1.24,0.441-2.169l0.902-3.436
			h1.488l-1.967,6.973H198.151z"/>
		<path style="fill:#FFFFFF;" d="M205.703,76.079c-1.084,0-1.932-0.316-2.544-0.949c-0.612-0.633-0.917-1.504-0.917-2.613
			c0-1.139,0.284-2.034,0.851-2.686s1.347-0.977,2.339-0.977c0.921,0,1.648,0.28,2.182,0.839c0.534,0.559,0.801,1.328,0.801,2.308
			v0.801h-4.647c0.021,0.677,0.204,1.197,0.549,1.56s0.83,0.545,1.456,0.545c0.412,0,0.795-0.039,1.151-0.117
			c0.355-0.078,0.737-0.207,1.144-0.388v1.204c-0.362,0.173-0.727,0.294-1.097,0.366C206.6,76.044,206.178,76.079,205.703,76.079z
			 M205.432,69.976c-0.471,0-0.848,0.149-1.132,0.448s-0.453,0.734-0.508,1.305h3.165c-0.009-0.576-0.147-1.012-0.416-1.308
			C206.273,70.124,205.902,69.976,205.432,69.976z"/>
		<path style="fill:#FFFFFF;" d="M213.311,68.854c0.299,0,0.545,0.021,0.738,0.063l-0.145,1.381c-0.21-0.05-0.429-0.076-0.656-0.076
			c-0.593,0-1.073,0.193-1.441,0.58c-0.368,0.387-0.552,0.889-0.552,1.507v3.644h-1.482V68.98h1.16l0.195,1.229h0.076
			c0.231-0.416,0.533-0.746,0.905-0.99C212.482,68.976,212.882,68.854,213.311,68.854z"/>
		<path style="fill:#FFFFFF;" d="M224.235,72.454c0,1.139-0.292,2.028-0.876,2.667c-0.584,0.639-1.397,0.958-2.44,0.958
			c-0.652,0-1.227-0.147-1.728-0.441c-0.5-0.294-0.885-0.716-1.154-1.267c-0.269-0.551-0.404-1.189-0.404-1.917
			c0-1.131,0.29-2.014,0.87-2.648c0.58-0.634,1.397-0.952,2.453-0.952c1.009,0,1.807,0.325,2.396,0.974
			C223.941,70.478,224.235,71.353,224.235,72.454z M219.16,72.454c0,1.61,0.595,2.415,1.784,2.415c1.177,0,1.765-0.805,1.765-2.415
			c0-1.593-0.593-2.39-1.778-2.39c-0.622,0-1.073,0.206-1.352,0.618S219.16,71.685,219.16,72.454z"/>
		<path style="fill:#FFFFFF;" d="M229.115,70.102h-1.702v5.851h-1.488v-5.851h-1.147v-0.694l1.147-0.454v-0.454
			c0-0.824,0.193-1.434,0.58-1.832s0.977-0.596,1.772-0.596c0.521,0,1.034,0.086,1.538,0.259l-0.391,1.122
			c-0.366-0.117-0.715-0.177-1.047-0.177c-0.337,0-0.581,0.104-0.735,0.312c-0.154,0.208-0.23,0.52-0.23,0.936v0.454h1.702V70.102z"
			/>
		<path style="fill:#FFFFFF;" d="M237.15,75.953l-2.673-7.698h-0.05c0.072,1.144,0.107,2.215,0.107,3.216v4.483h-1.368v-9.218h2.125
			l2.56,7.333h0.038l2.635-7.333h2.131v9.218h-1.45v-4.558c0-0.458,0.012-1.055,0.035-1.791s0.043-1.181,0.06-1.337h-0.05
			l-2.768,7.686H237.15z"/>
		<path style="fill:#FFFFFF;" d="M247.647,76.079c-1.084,0-1.932-0.316-2.544-0.949c-0.612-0.633-0.917-1.504-0.917-2.613
			c0-1.139,0.284-2.034,0.851-2.686s1.347-0.977,2.339-0.977c0.921,0,1.648,0.28,2.182,0.839c0.534,0.559,0.801,1.328,0.801,2.308
			v0.801h-4.647c0.021,0.677,0.204,1.197,0.549,1.56s0.83,0.545,1.456,0.545c0.412,0,0.795-0.039,1.151-0.117
			c0.355-0.078,0.737-0.207,1.144-0.388v1.204c-0.362,0.173-0.727,0.294-1.097,0.366C248.545,76.044,248.122,76.079,247.647,76.079z
			 M247.376,69.976c-0.471,0-0.848,0.149-1.132,0.448s-0.453,0.734-0.508,1.305h3.165c-0.009-0.576-0.147-1.012-0.416-1.308
			C248.217,70.124,247.846,69.976,247.376,69.976z"/>
		<path style="fill:#FFFFFF;" d="M257.853,75.953h-1.488v-4.287c0-0.538-0.108-0.939-0.325-1.204
			c-0.217-0.265-0.56-0.397-1.031-0.397c-0.627,0-1.084,0.185-1.374,0.555c-0.29,0.37-0.435,0.99-0.435,1.86v3.474h-1.482V68.98
			h1.16l0.208,0.914h0.076c0.21-0.332,0.508-0.589,0.895-0.769c0.387-0.18,0.816-0.271,1.286-0.271c1.673,0,2.509,0.851,2.509,2.553
			V75.953z"/>
		<path style="fill:#FFFFFF;" d="M262.19,74.882c0.362,0,0.723-0.057,1.084-0.17v1.116c-0.164,0.072-0.375,0.132-0.634,0.18
			c-0.259,0.048-0.526,0.073-0.804,0.073c-1.404,0-2.106-0.74-2.106-2.219v-3.758h-0.952v-0.656l1.021-0.542l0.504-1.475h0.914
			v1.551h1.986v1.122h-1.986v3.733c0,0.357,0.089,0.621,0.268,0.791S261.9,74.882,262.19,74.882z"/>
		<path style="fill:#FFFFFF;" d="M270.53,72.454c0,1.139-0.292,2.028-0.876,2.667c-0.584,0.639-1.397,0.958-2.44,0.958
			c-0.652,0-1.227-0.147-1.728-0.441s-0.885-0.716-1.154-1.267c-0.269-0.551-0.404-1.189-0.404-1.917c0-1.131,0.29-2.014,0.87-2.648
			c0.58-0.634,1.397-0.952,2.453-0.952c1.009,0,1.807,0.325,2.396,0.974C270.236,70.478,270.53,71.353,270.53,72.454z
			 M265.455,72.454c0,1.61,0.595,2.415,1.784,2.415c1.177,0,1.765-0.805,1.765-2.415c0-1.593-0.593-2.39-1.778-2.39
			c-0.622,0-1.073,0.206-1.352,0.618C265.594,71.095,265.455,71.685,265.455,72.454z"/>
		<path style="fill:#FFFFFF;" d="M275.446,68.854c0.299,0,0.545,0.021,0.738,0.063l-0.145,1.381c-0.21-0.05-0.429-0.076-0.656-0.076
			c-0.593,0-1.073,0.193-1.441,0.58c-0.368,0.387-0.552,0.889-0.552,1.507v3.644h-1.482V68.98h1.16l0.195,1.229h0.076
			c0.231-0.416,0.533-0.746,0.905-0.99C274.617,68.976,275.018,68.854,275.446,68.854z"/>
		<path style="fill:#FFFFFF;" d="M277.066,67.133c0-0.265,0.073-0.469,0.218-0.612c0.145-0.143,0.352-0.214,0.621-0.214
			c0.261,0,0.463,0.072,0.608,0.214c0.145,0.143,0.217,0.347,0.217,0.612c0,0.252-0.072,0.451-0.217,0.596s-0.348,0.218-0.608,0.218
			c-0.269,0-0.476-0.073-0.621-0.218S277.066,67.385,277.066,67.133z M278.636,75.953h-1.482V68.98h1.482V75.953z"/>
		<path style="fill:#FFFFFF;" d="M286.566,75.953h-1.488v-4.287c0-0.538-0.108-0.939-0.325-1.204s-0.56-0.397-1.031-0.397
			c-0.627,0-1.084,0.185-1.374,0.555c-0.29,0.37-0.435,0.99-0.435,1.86v3.474h-1.482V68.98h1.16l0.208,0.914h0.076
			c0.21-0.332,0.508-0.589,0.895-0.769c0.387-0.18,0.816-0.271,1.286-0.271c1.673,0,2.509,0.851,2.509,2.553V75.953z"/>
		<path style="fill:#FFFFFF;" d="M294.194,68.98v0.813l-1.192,0.221c0.11,0.147,0.199,0.328,0.271,0.542
			c0.072,0.214,0.107,0.441,0.107,0.681c0,0.719-0.248,1.284-0.744,1.696s-1.179,0.618-2.049,0.618c-0.223,0-0.425-0.017-0.605-0.05
			c-0.319,0.198-0.479,0.429-0.479,0.694c0,0.16,0.075,0.28,0.224,0.359c0.149,0.08,0.423,0.12,0.823,0.12h1.217
			c0.769,0,1.353,0.164,1.753,0.492s0.599,0.801,0.599,1.419c0,0.79-0.326,1.4-0.977,1.828s-1.593,0.643-2.825,0.643
			c-0.95,0-1.675-0.168-2.175-0.504c-0.5-0.337-0.75-0.816-0.75-1.438c0-0.429,0.136-0.789,0.407-1.081s0.65-0.495,1.138-0.608
			c-0.198-0.084-0.36-0.22-0.489-0.407c-0.128-0.187-0.192-0.384-0.192-0.59c0-0.261,0.073-0.482,0.221-0.662
			c0.147-0.18,0.366-0.359,0.656-0.536c-0.362-0.155-0.655-0.409-0.88-0.76c-0.225-0.351-0.337-0.762-0.337-1.233
			c0-0.757,0.239-1.343,0.716-1.759s1.157-0.624,2.04-0.624c0.198,0,0.404,0.013,0.621,0.041c0.217,0.028,0.379,0.056,0.489,0.085
			H294.194z M288.715,77.038c0,0.319,0.144,0.565,0.432,0.738c0.288,0.173,0.693,0.259,1.214,0.259c0.807,0,1.408-0.116,1.803-0.347
			c0.395-0.231,0.593-0.538,0.593-0.921c0-0.303-0.108-0.518-0.325-0.646s-0.619-0.192-1.207-0.192h-1.122
			c-0.425,0-0.762,0.1-1.012,0.299C288.84,76.427,288.715,76.697,288.715,77.038z M289.352,71.237c0,0.437,0.113,0.773,0.337,1.009
			c0.225,0.236,0.548,0.353,0.968,0.353c0.857,0,1.286-0.458,1.286-1.374c0-0.454-0.106-0.804-0.318-1.05
			c-0.212-0.246-0.535-0.369-0.968-0.369c-0.429,0-0.753,0.122-0.974,0.366S289.352,70.771,289.352,71.237z"/>
		<path style="fill:#FFFFFF;" d="M294.471,68.967c0-0.49,0.123-0.95,0.368-1.378s0.582-0.768,1.01-1.015
			c0.429-0.247,0.891-0.371,1.386-0.371c0.49,0,0.95,0.123,1.378,0.368c0.429,0.245,0.767,0.582,1.014,1.01S300,68.472,300,68.967
			c0,0.482-0.119,0.935-0.356,1.36c-0.238,0.424-0.571,0.764-1,1.018c-0.429,0.255-0.898,0.382-1.408,0.382
			c-0.508,0-0.976-0.127-1.404-0.38c-0.429-0.254-0.763-0.593-1.002-1.017C294.591,69.906,294.471,69.451,294.471,68.967z
			 M294.924,68.967c0,0.416,0.103,0.803,0.311,1.159c0.207,0.357,0.489,0.638,0.847,0.843c0.358,0.206,0.742,0.309,1.155,0.309
			c0.416,0,0.804-0.105,1.162-0.314c0.357-0.21,0.638-0.492,0.843-0.846c0.205-0.354,0.307-0.738,0.307-1.152
			c0-0.412-0.103-0.798-0.311-1.156c-0.207-0.359-0.49-0.642-0.849-0.847c-0.359-0.206-0.743-0.309-1.152-0.309
			c-0.412,0-0.794,0.102-1.149,0.305c-0.354,0.203-0.636,0.484-0.847,0.842C295.029,68.159,294.924,68.547,294.924,68.967z
			 M298.357,68.312c0,0.419-0.188,0.705-0.562,0.857l0.871,1.46h-0.775l-0.706-1.272h-0.33v1.272h-0.695v-3.32h0.963
			c0.426,0,0.739,0.084,0.937,0.25C298.257,67.725,298.357,67.976,298.357,68.312z M296.854,68.823h0.253
			c0.182,0,0.319-0.043,0.412-0.129c0.093-0.085,0.139-0.208,0.139-0.367c0-0.177-0.045-0.299-0.134-0.37
			c-0.09-0.069-0.231-0.105-0.425-0.105h-0.246V68.823z"/>
	</g>
</g>
</svg>
